<svg width="63" height="72" viewBox="0 0 63 72" fill="none" xmlns="http://www.w3.org/2000/svg">
<g filter="url(#filter0_d_4581_18694)">
<path d="M49.022 10.5H42.581L41.831 8.25C41.4695 7.1575 40.7725 6.20691 39.8393 5.53359C38.9061 4.86028 37.7843 4.49858 36.6335 4.5H27.3665C26.2161 4.49913 25.0946 4.86106 24.1618 5.53432C23.2289 6.20758 22.5321 7.15787 22.1705 8.25L21.419 10.5H14.978C13.5256 10.5016 12.1332 11.0792 11.1062 12.1062C10.0792 13.1332 9.50159 14.5256 9.5 15.978V38.028C9.50317 39.4793 10.0815 40.8702 11.1083 41.8959C12.1351 42.9216 13.5267 43.4984 14.978 43.5H49.028C50.4793 43.4968 51.8702 42.9185 52.8959 41.8917C53.9216 40.8649 54.4984 39.4733 54.5 38.022V15.972C54.4968 14.5207 53.9185 13.1298 52.8917 12.1041C51.8649 11.0784 50.4733 10.5016 49.022 10.5ZM51.5 38.022C51.4992 38.679 51.2379 39.3088 50.7733 39.7733C50.3088 40.2379 49.679 40.4992 49.022 40.5H14.978C14.321 40.4992 13.6912 40.2379 13.2267 39.7733C12.7621 39.3088 12.5008 38.679 12.5 38.022V15.972C12.5024 15.3161 12.7644 14.6878 13.2288 14.2245C13.6932 13.7613 14.3221 13.5008 14.978 13.5H22.5005C22.8152 13.4998 23.1218 13.4006 23.377 13.2164C23.6322 13.0323 23.8231 12.7726 23.9225 12.474L25.016 9.1935C25.1802 8.70008 25.4957 8.27091 25.9176 7.96692C26.3395 7.66293 26.8465 7.49956 27.3665 7.5H36.6335C37.1538 7.49944 37.661 7.66293 38.083 7.96724C38.505 8.27155 38.8203 8.70117 38.984 9.195L40.0775 12.474C40.1769 12.7726 40.3678 13.0323 40.623 13.2164C40.8782 13.4006 41.1848 13.4998 41.4995 13.5H49.022C49.679 13.5008 50.3088 13.7621 50.7733 14.2267C51.2379 14.6912 51.4992 15.321 51.5 15.978V38.022Z" fill="white"/>
</g>
<g filter="url(#filter1_d_4581_18694)">
<path d="M32 15C29.775 15 27.5999 15.6598 25.7498 16.896C23.8998 18.1321 22.4578 19.8891 21.6064 21.9448C20.7549 24.0005 20.5321 26.2625 20.9662 28.4448C21.4003 30.6271 22.4717 32.6316 24.0451 34.205C25.6184 35.7783 27.623 36.8498 29.8052 37.2838C31.9875 37.7179 34.2495 37.4951 36.3052 36.6436C38.3609 35.7922 40.1179 34.3502 41.354 32.5002C42.5902 30.6501 43.25 28.475 43.25 26.25C43.2468 23.2673 42.0605 20.4077 39.9515 18.2986C37.8424 16.1895 34.9827 15.0032 32 15ZM32 34.5C30.3683 34.5 28.7733 34.0161 27.4166 33.1096C26.0598 32.2031 25.0024 30.9146 24.378 29.4071C23.7536 27.8996 23.5902 26.2408 23.9085 24.6405C24.2269 23.0402 25.0126 21.5702 26.1664 20.4164C27.3202 19.2626 28.7902 18.4769 30.3905 18.1585C31.9909 17.8402 33.6497 18.0036 35.1571 18.628C36.6646 19.2524 37.9531 20.3098 38.8596 21.6665C39.7662 23.0233 40.25 24.6183 40.25 26.25C40.2476 28.4373 39.3777 30.5343 37.831 32.081C36.2843 33.6277 34.1873 34.4976 32 34.5Z" fill="white"/>
</g>
<g filter="url(#filter2_d_4581_18694)">
<path d="M47 19.5C47.8284 19.5 48.5 18.8284 48.5 18C48.5 17.1716 47.8284 16.5 47 16.5C46.1716 16.5 45.5 17.1716 45.5 18C45.5 18.8284 46.1716 19.5 47 19.5Z" fill="white"/>
</g>
<g filter="url(#filter3_d_4581_18694)">
<path d="M9.128 61.144C8.072 61.144 7.176 60.9573 6.44 60.584C5.704 60.2107 5.13867 59.6827 4.744 59C4.36 58.3067 4.168 57.496 4.168 56.568V49.336H6.648V56.552C6.648 57.3413 6.86667 57.9387 7.304 58.344C7.752 58.7387 8.36533 58.936 9.144 58.936C9.96533 58.936 10.584 58.728 11 58.312C11.4267 57.896 11.64 57.3093 11.64 56.552V49.336H14.12V56.568C14.12 57.528 13.912 58.3493 13.496 59.032C13.0907 59.7147 12.5147 60.2373 11.768 60.6C11.0213 60.9627 10.1413 61.144 9.128 61.144ZM16.2736 63.672V52.424H18.5456L18.6256 53.912H18.7536C18.9563 53.4213 19.2923 53.0267 19.7616 52.728C20.2416 52.4187 20.8123 52.264 21.4736 52.264C22.4976 52.264 23.3243 52.6373 23.9536 53.384C24.5936 54.1307 24.9136 55.24 24.9136 56.712C24.9136 58.184 24.5936 59.2933 23.9536 60.04C23.3243 60.7867 22.4976 61.16 21.4736 61.16C20.8123 61.16 20.2416 61.0107 19.7616 60.712C19.2923 60.4027 18.9563 60.0027 18.7536 59.512H18.6256V63.672H16.2736ZM20.5936 59.256C21.1696 59.256 21.6283 59.0533 21.9696 58.648C22.3216 58.232 22.4976 57.5867 22.4976 56.712C22.4976 55.8373 22.3216 55.1973 21.9696 54.792C21.6283 54.376 21.1696 54.168 20.5936 54.168C20.1456 54.168 19.7776 54.2693 19.4896 54.472C19.2123 54.6747 19.0043 54.9413 18.8656 55.272C18.727 55.592 18.6576 55.9333 18.6576 56.296V57.128C18.6576 57.4907 18.727 57.8373 18.8656 58.168C19.0043 58.488 19.2123 58.7493 19.4896 58.952C19.7776 59.1547 20.1456 59.256 20.5936 59.256ZM26.3986 61V49.336H28.7506V61H26.3986ZM34.5656 61.144C33.7016 61.144 32.9443 60.968 32.2936 60.616C31.6536 60.264 31.1523 59.7573 30.7896 59.096C30.4376 58.4347 30.2616 57.64 30.2616 56.712C30.2616 55.8267 30.4323 55.0533 30.7736 54.392C31.115 53.72 31.6056 53.1973 32.2456 52.824C32.8856 52.4507 33.659 52.264 34.5656 52.264C35.419 52.264 36.1656 52.4453 36.8056 52.808C37.4563 53.16 37.9576 53.6667 38.3096 54.328C38.6723 54.9893 38.8536 55.784 38.8536 56.712C38.8536 57.5973 38.683 58.376 38.3416 59.048C38.0003 59.7093 37.5096 60.2267 36.8696 60.6C36.2296 60.9627 35.4616 61.144 34.5656 61.144ZM34.5496 59.24C35.1256 59.24 35.5896 59.032 35.9416 58.616C36.2936 58.2 36.4696 57.5653 36.4696 56.712C36.4696 55.8587 36.299 55.224 35.9576 54.808C35.6163 54.392 35.1523 54.184 34.5656 54.184C33.979 54.184 33.5096 54.392 33.1576 54.808C32.8056 55.224 32.6296 55.8587 32.6296 56.712C32.6296 57.5547 32.8056 58.1893 33.1576 58.616C33.5096 59.032 33.9736 59.24 34.5496 59.24ZM43.42 61.144C42.396 61.144 41.5693 60.776 40.94 60.04C40.3107 59.2933 39.996 58.184 39.996 56.712C39.996 55.2293 40.3107 54.12 40.94 53.384C41.5693 52.6373 42.396 52.264 43.42 52.264C44.0813 52.264 44.6467 52.4133 45.116 52.712C45.596 53.0107 45.9373 53.4107 46.14 53.912H46.268L46.364 52.424H48.62V61H46.268V59.496H46.14C45.9373 59.9973 45.596 60.3973 45.116 60.696C44.6467 60.9947 44.0813 61.144 43.42 61.144ZM44.316 59.24C44.7533 59.24 45.1107 59.1387 45.388 58.936C45.676 58.7333 45.8893 58.472 46.028 58.152C46.1667 57.832 46.236 57.4853 46.236 57.112V56.296C46.236 55.9227 46.1667 55.576 46.028 55.256C45.8893 54.936 45.676 54.6747 45.388 54.472C45.1107 54.2693 44.7533 54.168 44.316 54.168C43.74 54.168 43.276 54.376 42.924 54.792C42.572 55.1973 42.396 55.8373 42.396 56.712C42.396 57.576 42.572 58.216 42.924 58.632C43.276 59.0373 43.74 59.24 44.316 59.24ZM53.4356 61.144C52.4116 61.144 51.585 60.776 50.9556 60.04C50.3263 59.2933 50.0116 58.184 50.0116 56.712C50.0116 55.2293 50.3263 54.12 50.9556 53.384C51.585 52.6373 52.4116 52.264 53.4356 52.264C54.097 52.264 54.6623 52.4133 55.1316 52.712C55.6116 53.0107 55.953 53.4107 56.1556 53.912H56.2836V49.336H58.6356V61H56.3636L56.2836 59.496H56.1556C55.953 59.9973 55.6116 60.3973 55.1316 60.696C54.6623 60.9947 54.097 61.144 53.4356 61.144ZM54.3316 59.24C54.769 59.24 55.1263 59.1387 55.4036 58.936C55.6916 58.7333 55.905 58.472 56.0436 58.152C56.1823 57.832 56.2516 57.4853 56.2516 57.112V56.296C56.2516 55.9227 56.1823 55.576 56.0436 55.256C55.905 54.936 55.6916 54.6747 55.4036 54.472C55.1263 54.2693 54.769 54.168 54.3316 54.168C53.7556 54.168 53.2916 54.376 52.9396 54.792C52.5876 55.1973 52.4116 55.8373 52.4116 56.712C52.4116 57.576 52.5876 58.216 52.9396 58.632C53.2916 59.0373 53.7556 59.24 54.3316 59.24Z" fill="white"/>
</g>
<defs>
<filter id="filter0_d_4581_18694" x="5.5" y="4.5" width="53" height="47" filterUnits="userSpaceOnUse" color-interpolation-filters="sRGB">
<feFlood flood-opacity="0" result="BackgroundImageFix"/>
<feColorMatrix in="SourceAlpha" type="matrix" values="0 0 0 0 0 0 0 0 0 0 0 0 0 0 0 0 0 0 127 0" result="hardAlpha"/>
<feOffset dy="4"/>
<feGaussianBlur stdDeviation="2"/>
<feComposite in2="hardAlpha" operator="out"/>
<feColorMatrix type="matrix" values="0 0 0 0 0 0 0 0 0 0 0 0 0 0 0 0 0 0 0.05 0"/>
<feBlend mode="normal" in2="BackgroundImageFix" result="effect1_dropShadow_4581_18694"/>
<feBlend mode="normal" in="SourceGraphic" in2="effect1_dropShadow_4581_18694" result="shape"/>
</filter>
<filter id="filter1_d_4581_18694" x="16.75" y="15" width="30.5" height="30.5" filterUnits="userSpaceOnUse" color-interpolation-filters="sRGB">
<feFlood flood-opacity="0" result="BackgroundImageFix"/>
<feColorMatrix in="SourceAlpha" type="matrix" values="0 0 0 0 0 0 0 0 0 0 0 0 0 0 0 0 0 0 127 0" result="hardAlpha"/>
<feOffset dy="4"/>
<feGaussianBlur stdDeviation="2"/>
<feComposite in2="hardAlpha" operator="out"/>
<feColorMatrix type="matrix" values="0 0 0 0 0 0 0 0 0 0 0 0 0 0 0 0 0 0 0.05 0"/>
<feBlend mode="normal" in2="BackgroundImageFix" result="effect1_dropShadow_4581_18694"/>
<feBlend mode="normal" in="SourceGraphic" in2="effect1_dropShadow_4581_18694" result="shape"/>
</filter>
<filter id="filter2_d_4581_18694" x="41.5" y="16.5" width="11" height="11" filterUnits="userSpaceOnUse" color-interpolation-filters="sRGB">
<feFlood flood-opacity="0" result="BackgroundImageFix"/>
<feColorMatrix in="SourceAlpha" type="matrix" values="0 0 0 0 0 0 0 0 0 0 0 0 0 0 0 0 0 0 127 0" result="hardAlpha"/>
<feOffset dy="4"/>
<feGaussianBlur stdDeviation="2"/>
<feComposite in2="hardAlpha" operator="out"/>
<feColorMatrix type="matrix" values="0 0 0 0 0 0 0 0 0 0 0 0 0 0 0 0 0 0 0.05 0"/>
<feBlend mode="normal" in2="BackgroundImageFix" result="effect1_dropShadow_4581_18694"/>
<feBlend mode="normal" in="SourceGraphic" in2="effect1_dropShadow_4581_18694" result="shape"/>
</filter>
<filter id="filter3_d_4581_18694" x="0.167969" y="49.3359" width="62.4678" height="22.3359" filterUnits="userSpaceOnUse" color-interpolation-filters="sRGB">
<feFlood flood-opacity="0" result="BackgroundImageFix"/>
<feColorMatrix in="SourceAlpha" type="matrix" values="0 0 0 0 0 0 0 0 0 0 0 0 0 0 0 0 0 0 127 0" result="hardAlpha"/>
<feOffset dy="4"/>
<feGaussianBlur stdDeviation="2"/>
<feComposite in2="hardAlpha" operator="out"/>
<feColorMatrix type="matrix" values="0 0 0 0 0 0 0 0 0 0 0 0 0 0 0 0 0 0 0.05 0"/>
<feBlend mode="normal" in2="BackgroundImageFix" result="effect1_dropShadow_4581_18694"/>
<feBlend mode="normal" in="SourceGraphic" in2="effect1_dropShadow_4581_18694" result="shape"/>
</filter>
</defs>
</svg>
